<?xml version="1.0" encoding="utf-8"?>
<!-- Generator: Adobe Illustrator 16.0.0, SVG Export Plug-In . SVG Version: 6.00 Build 0)  -->
<!DOCTYPE svg PUBLIC "-//W3C//DTD SVG 1.1//EN" "http://www.w3.org/Graphics/SVG/1.1/DTD/svg11.dtd">
<svg version="1.1" id="Layer_1" xmlns="http://www.w3.org/2000/svg" xmlns:xlink="http://www.w3.org/1999/xlink" x="0px" y="0px"
	 width="792px" height="612px" viewBox="0 0 792 612" style="enable-background:new 0 0 792 612;" xml:space="preserve">
<g>
	<path style="fill:#BF3376;" d="M217.774,508.559c0,44.607,7.898,45.887,2.671,45.887c-14.983,0-17.306-24.744-18.119-24.744
		c-0.929,0-6.853,13.824-16.029,13.824c-9.292,0-18.584-6.158-18.584-22.305c0-15.217,8.363-40.193,25.553-40.193
		c6.389,0,10.337,0,12.661,2.672c2.323-17.424,5.459-35.895,5.459-36.475c0-0.93,0.116-2.789,2.323-2.789
		c2.323,0,12.544,3.486,12.544,7.668S217.774,482.77,217.774,508.559z M203.953,499.848c-1.858,0.115-3.717-0.232-3.717-1.395
		c0-2.557,2.671-11.965-1.626-11.965c-8.595,0-15.68,20.561-15.68,41.936c0,4.297,2.439,11.268,5.923,11.268
		c3.485,0,14.519-24.279,14.519-30.318C203.372,506.934,203.604,503.68,203.953,499.848z"/>
	<path style="fill:#BF3376;" d="M280.846,509.256c-0.813,2.324-7.55,30.783-25.786,30.783c-16.145,0-25.785-14.52-25.785-26.137
		c0-15.102,7.666-29.041,12.312-33.223c4.762-4.182,15.913-3.484,19.513-1.742c3.484,1.625,6.04,6.969,6.04,13.475
		c0,12.197-5.807,18.586-13.357,18.586c-2.788,0-6.04-0.813-8.479-1.51c-0.929,11.5,6.156,23.232,12.544,23.232
		c14.751,0,19.978-22.535,20.675-24.51C279.336,506.004,281.659,506.816,280.846,509.256z M245.537,507.049
		c14.751,6.273,17.074-19.4,11.15-19.4C250.647,487.648,246.698,496.943,245.537,507.049z"/>
	<path style="fill:#BF3376;" d="M381.667,455.123c-2.671,0-8.711-7.318-18.003-7.318c-20.791,0-54.01,33.455-42.163,33.455
		c5.343,0,17.539-7.898,36.587-7.898c24.972,0,28.457,12.197,28.457,21.258c0,32.295-37.633,55.295-60.282,55.295
		c-7.55,0-20.094-6.971-20.094-20.793c0-7.436,7.434-6.158,7.434-0.232c0,5.344,6.853,6.736,10.337,6.736
		c13.938,0,42.859-20.908,42.859-40.193c0-8.596-1.394-15.682-9.524-15.682c-18.7,0-33.219,10.223-36.355,10.223
		c-6.156,0-12.544-6.273-12.544-11.268c0-18.586,35.193-49.371,57.727-49.371C381.784,429.334,387.475,455.123,381.667,455.123z"/>
	<path style="fill:#BF3376;" d="M430.92,542.363c-7.434,0-15.913-5.111-15.913-18.238c0-1.742,0-3.602,0.116-5.691l-8.827,22.188
		c0.465,1.277,0.929,2.09,0.929,3.252c0,3.137-17.422,0.582-17.422-19.98c0-12.662,2.904-32.758,2.904-36.824
		c0-2.787-3.252-6.273,1.858-6.273c6.156,0,13.59,3.486,13.59,7.668s-4.414,18.121-4.414,34.617c0,6.854,0.581,11.035,1.277,13.824
		c2.323-5.344,7.666-18.238,10.57-27.531c0.232-4.299,0.465-8.016,0.465-9.295c0-2.09,0.464-5.109,3.252-5.109
		c2.787,0,13.59,1.045,13.59,6.736c0,3.717-1.859,6.389-1.859,23.465C431.035,538.646,435.449,542.363,430.92,542.363z"/>
	<path style="fill:#BF3376;" d="M490.041,509.256c-0.813,2.324-7.55,30.783-25.785,30.783c-16.145,0-25.785-14.52-25.785-26.137
		c0-15.102,7.666-29.041,12.312-33.223c4.763-4.182,15.913-3.484,19.514-1.742c3.484,1.625,6.04,6.969,6.04,13.475
		c0,12.197-5.808,18.586-13.357,18.586c-2.788,0-6.04-0.813-8.479-1.51c-0.929,11.5,6.156,23.232,12.545,23.232
		c14.751,0,19.978-22.535,20.675-24.51C488.531,506.004,490.854,506.816,490.041,509.256z M454.731,507.049
		c14.751,6.273,17.074-19.4,11.15-19.4C459.843,487.648,455.894,496.943,454.731,507.049z"/>
	<path style="fill:#BF3376;" d="M530.464,524.938c0,17.541,2.207,16.496,2.207,19.865s-17.538,0.93-17.538-18.703
		c0-12.895,2.438-28.344,4.064-37.289c-5.11,12.895-13.938,46.582-18.468,53.205c-0.116,0.58-0.349,0.928-0.929,1.16
		c-0.116,0-0.232,0-0.349,0c-0.349,0.117-0.813,0.232-1.394,0.232c-16.958,0-15.332-39.496-15.332-41.238
		c0-2.092-1.277-1.277-1.277-3.369c0-2.09,17.073-3.252,17.073,4.299c0,2.439-0.464,14.984-0.464,18.818
		c0,3.02,0.232,5.691,0.58,8.016c4.414-14.754,14.403-45.188,22.766-49.951c0.232-0.232,0.581-0.348,0.93-0.465
		c0.464-0.115,0.813-0.232,1.277-0.232c0.697,0,1.394,0,2.207,0.117c1.858,0,2.903,0.232,3.252,0.58
		c3.717,1.045,7.317,3.252,7.317,6.041C536.388,491.6,530.464,516.109,530.464,524.938z M500.497,474.291
		c-5.691,0-10.104-9.758-7.897-9.758c2.206,0,1.742,1.51,7.434,1.51s11.267-2.439,19.629-2.439c9.873,0,13.009,11.035,11.034,11.035
		s-1.277-3.137-7.085-3.137C513.042,471.502,506.305,474.291,500.497,474.291z"/>
	<path style="fill:#BF3376;" d="M578.783,505.887c0,17.773-5.923,37.986-21.139,37.986c-13.706,0-16.958-15.566-16.958-27.299
		c0-10.92,2.091-24.395,10.569-26.254c2.788-7.781,9.873-8.596,15.332-8.596C573.324,481.725,578.783,488.23,578.783,505.887z
		 M565.774,488.811c-3.717,0-2.206,12.197-6.388,15.916c0.116,14.055-3.137,32.99,4.065,32.99
		C570.77,537.717,578.203,488.811,565.774,488.811z"/>
	<path style="fill:#BF3376;" d="M604.339,478.938c8.479,0,20.21-1.047,20.21,7.783c0,8.711-11.15,19.748-13.125,19.748
		c-2.091,0,2.788-16.379,0.93-16.379c-8.944,0-17.074,22.65-10.222,22.65c3.021,0,20.791-0.232,20.791,9.99
		c0,10.34-18.7,26.951-25.553,26.951c-6.854,0-11.267-6.041-8.247-6.041c5.575,0,21.604-17.191,21.604-21.373
		c0,0-24.972,3.832-24.972-14.986C585.755,497.176,595.976,478.938,604.339,478.938z"/>
</g>
<g>
	<path style="fill:#BF3376;" d="M461.655,388.727c-16.576,2.434-48.683-32.025-56.542-104.466
		c-2.674-24.46-3.743-53.972-4.023-83.475c-6.283,4.41-16.254,11.629-28.378,20.4c-27.345,87.188-66.034,188.861-96.059,184.797
		c-33.893-4.648-39.956-24.404-37.627-49.016c4.219-43.514,55.822-91.834,101.277-126.678
		c16.318-47.064,30.294-93.46,37.912-121.675c-45.248,21.311-94.207,49.864-97.34,81.174c-1.088,11.658-17.6-1.237-15.838-19.673
		c5.565-59.044,109.76-84.697,136.053-102.921c0.28-26.956,37.355-16.967,40.027,6.901c2.596,25.087-3.468,162.502,2.596,219.912
		C453.472,382.492,478.493,386.246,461.655,388.727z M332.69,252.582c-41.065,33.544-83.669,75.514-86.589,105.947
		c0,0-2.856,26.133,11.329,27.963C277.742,389.361,306.958,323.461,332.69,252.582z M401.37,121.472
		c-4.699,19.107-12.897,48.644-23.155,81.838c9.466-6.24,17.085-11.291,22.875-14.758
		C400.869,164.689,401.09,141.248,401.37,121.472z"/>
	<path style="fill:#BF3376;" d="M510.346,190.444c19.189,0,45.762-2.803,45.762,21.064c0,23.472-25.27,53.298-29.736,53.298
		c-4.719,0,6.264-44.264,2.099-44.264c-20.309,0-38.677,61.158-23.204,61.158c6.864,0,47.106-0.557,47.106,27.055
		c0,27.807-42.271,72.822-57.853,72.822c-15.461,0-25.465-16.406-18.625-16.406c12.532,0,48.913-46.393,48.913-57.713
		c0,0-56.484,10.406-56.484-40.439C468.323,239.715,491.354,190.444,510.346,190.444z"/>
</g>
<g>
	<path style="fill:#C44D72;" d="M573.13,392.652c36.923-47.17,48.177-109.417,48.147-168.059
		c-0.034-51.429-24.432-101.885-48.605-146.734c-6.832-12.738-14.226-25.103-21.77-37.445c-2.058-3.53-1.919-9.266,0.615-12.094
		c6.131-6.569,18.666,4.483,20.854,8.083c27.375,44.705,52.063,92.019,59.537,144.592c7.759,55.05-0.923,115.022-24.328,165.409
		c-8.284,17.908-19.573,33.074-32.459,47.762C574.105,395.449,571.998,394.023,573.13,392.652L573.13,392.652z"/>
	<path style="fill:#239CA7;" d="M571.721,421.158c9.256-4.994,17.803-12.74,26.291-18.904c9.679-6.957,19.377-13.826,28.639-21.293
		c17.321-13.801,33.654-28.883,49.11-44.848c14.72-15.496,28.861-31.612,42.719-47.757c14.71-17.179,28.366-35.384,43.329-52.448
		c8.506-9.788,23.85,5.749,14.203,14.05c-3.566,2.999-7.521,5.008-11.231,7.714c-4.578,3.385-10.999-2.26-9.466-7.232
		c1.171-3.452,2.646-6.783,3.997-10.167c6.084,2.555,12.177,5.107,18.261,7.592c-27.032,35.503-58.523,68.636-92.205,97.796
		c-16.388,14.371-33.48,28.041-51.295,40.672c-9.22,6.416-18.804,12.512-28.511,18.391c-10.814,6.602-22.915,10.41-33.779,16.533
		C571.715,421.295,571.652,421.193,571.721,421.158L571.721,421.158z"/>
	<path style="fill:#252159;" d="M607.379,382.834c7.175-11.293,14.828-22.072,21.549-33.895
		c6.725-11.973,12.026-24.92,16.611-38.623c4.457-13.264,12.142-46.193,14.063-60.658c2.185-15.461,2.221-30.825,1.898-46.713
		c-0.193-9.177,11.379-6.996,10.861,2.57c-0.105,2.613-0.023,5.238-0.187,7.764c-0.499,5.537-6.173,6.278-8.067,1.046
		c-0.833-2.418-1.295-4.996-2.063-7.513c3.38-1.107,6.895-2.196,10.271-3.25c2.24,31.647-8.304,82.933-18.869,109.832
		c-5.412,13.816-12.374,26.51-19.851,38.318c-7.555,12.068-15.883,23.291-25.77,31.861
		C607.557,383.943,607.006,383.332,607.379,382.834L607.379,382.834z"/>
	<path style="fill:#89B461;" d="M680.456,306.573c3.243-3.957,5.651-9.171,8.421-13.636c3.061-5.002,6.141-9.963,9.005-15.151
		c5.257-9.577,9.872-19.613,13.793-29.748c3.811-9.838,7.093-19.92,10.449-29.915c3.383-10.646,6.193-21.564,9.786-32.178
		c1.942-6.076,11.891-1.919,9.126,3.729c-1.124,2.007-2.569,3.731-3.658,5.667c-1.46,2.383-5.389,1.06-5.725-1.521
		c-0.14-1.802-0.107-3.542-0.143-5.349c3.216-0.006,6.575-0.009,9.791-0.015c-5.502,21.289-13.634,42.363-23.398,62.078
		c-4.737,9.717-9.924,19.19-15.759,28.318c-2.835,4.689-6.123,9.273-9.373,13.782c-3.723,5.027-8.464,9.17-12.269,13.974
		C680.479,306.643,680.43,306.605,680.456,306.573L680.456,306.573z"/>
	<path style="fill:#8F1F78;" d="M639.266,400.125c8.624-10.732,22.313-15.918,35.892-16.529c5.302-0.184,10.587,0.85,15.513,2.592
		c4.941,1.559,9.62,5.703,14.84,5.465c5.941-0.41,9.798-5.443,7.258-11.232c-5.551-13.135-29.471-9.428-40.32-7.094
		c-14.883,3.236-27.521,12.305-35.23,25.449C636.433,400.156,638.204,401.369,639.266,400.125L639.266,400.125z"/>
	<path style="fill:#BF316C;" d="M565.936,96.802c0.056,3.172-2.44,5.836-5.62,5.893c-3.327,0.058-5.913-2.441-5.972-5.689
		c-0.055-3.183,2.441-5.844,5.623-5.895C563.288,90.975,565.881,93.544,565.936,96.802z"/>
	<path style="fill:#BF316C;" d="M714.625,355.025c0.056,3.182-2.442,5.771-5.762,5.83c-3.179,0.189-5.771-2.441-5.836-5.621
		c-0.195-3.18,2.446-5.912,5.629-5.971C711.836,349.205,714.57,351.705,714.625,355.025z"/>
	<path style="fill:#BF316C;" d="M705.483,204.095c0.029,1.822-1.417,3.327-3.199,3.358c-1.867,0.032-3.369-1.417-3.398-3.24
		c-0.034-1.753,1.416-3.257,3.171-3.289C703.949,200.892,705.45,202.271,705.483,204.095z"/>
	<path style="fill:#BF316C;" d="M745.774,229.128c0.032,1.822-1.416,3.326-3.172,3.357c-1.895,0.032-3.395-1.416-3.43-3.241
		c-0.032-1.755,1.419-3.255,3.169-3.288C744.238,225.852,745.739,227.303,745.774,229.128z"/>
	<path style="fill:#BF316C;" d="M644.719,187.729c0.017,1.04-0.779,1.866-1.889,1.886c-0.97,0.018-1.797-0.779-1.814-1.818
		c-0.021-0.973,0.777-1.866,1.747-1.886C643.875,185.893,644.701,186.693,644.719,187.729z"/>
	<path style="fill:#BF316C;" d="M644.719,144.078c0.017,1.04-0.779,1.868-1.889,1.886c-0.97,0.016-1.797-0.781-1.814-1.819
		c-0.021-0.971,0.777-1.865,1.747-1.886C643.875,142.242,644.701,143.039,644.719,144.078z"/>
	<path style="fill:#BF316C;" d="M771.648,213.603c0.021,1.04-0.777,1.866-1.756,1.886c-1.1,0.018-1.929-0.779-1.943-1.818
		c-0.021-0.97,0.777-1.866,1.738-1.886C770.802,211.767,771.631,212.566,771.648,213.603z"/>
	<path style="fill:#BF316C;" d="M786.908,228.863c0.021,1.039-0.777,1.866-1.747,1.886c-1.108,0.018-1.936-0.78-1.953-1.749
		c-0.021-1.04,0.777-1.866,1.877-1.883C786.063,227.091,786.891,227.896,786.908,228.863z"/>
	<path style="fill:#BF316C;" d="M688.748,357.611c0.021,0.971-0.775,1.936-1.887,1.957c-0.972,0.016-1.798-0.779-1.815-1.889
		c-0.018-0.971,0.78-1.797,1.749-1.814C687.902,355.844,688.73,356.645,688.748,357.611z"/>
	<path style="fill:#BF316C;" d="M539.957,69.909c0.02,1.048-0.776,1.868-1.749,1.886c-1.106,0.016-1.936-0.781-1.952-1.82
		c-0.018-1.042,0.778-1.866,1.748-1.885C539.111,68.073,539.939,68.871,539.957,69.909z"/>
	<polygon style="fill:#CC6E83;" points="542.749,98.612 529.498,99.602 539.974,107.649 528.728,100.716 532.458,113.349 
		527.557,101.144 523.095,113.588 526.229,100.761 515.379,108.231 525.419,99.675 512.145,99.293 525.396,98.366 514.919,90.256 
		526.164,97.251 522.436,84.622 527.336,96.825 531.799,84.379 528.666,97.208 539.512,89.735 529.475,98.229 	"/>
	<polygon style="fill:#409941;" points="716.138,158.743 702.999,159.671 713.364,167.718 702.119,160.784 705.85,173.418 
		700.948,161.213 696.482,173.657 699.617,160.83 688.771,168.298 698.808,159.744 685.674,159.362 698.784,158.433 
		688.311,150.385 699.553,157.32 695.826,144.687 700.869,156.892 705.18,144.448 702.057,157.273 713.042,149.804 702.854,158.358 
			"/>
</g>
<g>
	<path style="fill:#C44D72;" d="M222.757,394.832c-36.983-47.172-48.247-109.419-48.218-168.06
		c0.035-51.5,24.432-101.942,48.605-146.804c6.833-12.668,14.156-25.107,21.698-37.375c2.199-3.522,1.992-9.333-0.543-12.099
		c-6.202-6.566-18.598,4.488-20.784,8.006c-27.374,44.786-52.133,92.107-59.608,144.673c-7.749,55.05,1,115.023,24.329,165.411
		c8.284,17.908,19.581,33.074,32.391,47.76C221.711,397.625,223.819,396.201,222.757,394.832L222.757,394.832z"/>
	<path style="fill:#239CA7;" d="M224.168,423.197c-9.328-4.854-17.867-12.6-26.439-18.764c-9.604-7.1-19.3-13.967-28.563-21.293
		c-17.322-13.943-33.731-28.885-49.041-44.852c-14.79-15.492-28.861-31.611-42.789-47.757
		c-14.781-17.246-28.437-35.452-43.329-52.516c-8.496-9.717-23.92,5.819-14.136,14.05c3.499,2.999,7.533,5.078,11.163,7.785
		c4.583,3.384,10.929-2.26,9.385-7.233c-1.089-3.451-2.563-6.783-3.846-10.167c-6.084,2.555-12.174,5.037-18.258,7.592
		c26.963,35.434,58.522,68.636,92.063,97.798c16.537,14.367,33.48,28.039,51.365,40.672c9.291,6.414,18.804,12.512,28.439,18.389
		c10.885,6.604,22.985,10.41,33.851,16.533C224.173,423.475,224.234,423.371,224.168,423.197L224.168,423.197z"/>
	<path style="fill:#252159;" d="M188.508,385.012c-7.244-11.295-14.886-22.072-21.619-34.035
		c-6.724-11.83-12.027-24.777-16.611-38.48c-4.375-13.325-12.141-46.194-14.135-60.659c-2.182-15.461-2.225-30.896-1.825-46.713
		c0.263-9.177-11.379-7.066-10.852,2.5c0.095,2.613,0.023,5.238,0.176,7.834c0.429,5.466,6.173,6.208,7.998,1.045
		c0.833-2.488,1.431-4.997,2.202-7.513c-3.449-1.107-6.893-2.213-10.332-3.32c-2.247,31.716,8.239,83.002,18.791,109.901
		c5.495,13.816,12.445,26.51,19.933,38.318c7.474,12.066,15.801,23.291,25.688,31.861
		C188.26,386.121,188.822,385.512,188.508,385.012L188.508,385.012z"/>
	<path style="fill:#89B461;" d="M115.361,308.752c-3.24-4.119-5.723-9.194-8.421-13.636c-3.061-5.072-6.14-10.032-8.964-15.152
		c-5.222-9.646-9.836-19.613-13.834-29.818c-3.811-9.771-7.163-19.849-10.375-29.844c-3.446-10.646-6.266-21.563-9.793-32.178
		c-1.999-6.076-12.025-1.919-9.124,3.729c1.063,2.006,2.503,3.731,3.672,5.667c1.379,2.383,5.378,0.99,5.571-1.521
		c0.211-1.802,0.181-3.612,0.214-5.35c-3.288-0.006-6.499-0.009-9.791-0.014c5.576,21.289,13.634,42.362,23.408,62.077
		c4.729,9.717,9.915,19.12,15.664,28.248c2.99,4.76,6.138,9.344,9.458,13.853c3.733,5.028,8.465,9.008,12.27,13.975
		C115.338,308.822,115.388,308.783,115.361,308.752L115.361,308.752z"/>
	<path style="fill:#8F1F78;" d="M156.62,402.305c-8.693-10.734-22.381-15.922-35.959-16.531c-5.302-0.184-10.587,0.852-15.587,2.453
		c-4.86,1.559-9.548,5.844-14.766,5.604c-5.872-0.408-9.72-5.582-7.33-11.234c5.621-13.133,29.611-9.564,40.316-7.09
		c15.034,3.234,27.597,12.305,35.305,25.449C159.385,402.336,157.542,403.408,156.62,402.305L156.62,402.305z"/>
	<path style="fill:#BF316C;" d="M229.881,98.901c-0.092,3.251,2.441,5.914,5.691,5.971c3.183,0.058,5.842-2.511,5.9-5.69
		c0.056-3.252-2.441-5.914-5.693-5.972C232.599,93.153,229.937,95.723,229.881,98.901z"/>
	<path style="fill:#BF316C;" d="M81.192,357.063c-0.056,3.322,2.511,5.912,5.691,5.971c3.25,0.059,5.913-2.441,5.971-5.619
		c0.056-3.182-2.432-5.914-5.694-5.973C83.991,351.383,81.329,353.883,81.192,357.063z"/>
	<path style="fill:#BF316C;" d="M90.366,206.274c-0.061,1.772,1.384,3.256,3.206,3.358c1.835,0.032,3.339-1.416,3.36-3.241
		c0.033-1.822-1.418-3.326-3.244-3.358C91.948,203.001,90.447,204.449,90.366,206.274z"/>
	<path style="fill:#BF316C;" d="M50.042,231.306c-0.032,1.752,1.416,3.256,3.241,3.289c1.835,0.096,3.337-1.347,3.372-3.171
		c0.023-1.825-1.431-3.327-3.255-3.359C51.587,228.03,50.156,229.482,50.042,231.306z"/>
	<path style="fill:#BF316C;" d="M151.098,189.908c-0.018,0.969,0.799,1.866,1.819,1.886c1.04,0.018,1.866-0.779,1.884-1.819
		c0.02-1.042-0.777-1.866-1.816-1.886C152.012,188.071,151.121,188.871,151.098,189.908z"/>
	<path style="fill:#BF316C;" d="M151.098,146.257c-0.018,0.97,0.799,1.868,1.819,1.886c1.04,0.016,1.866-0.781,1.884-1.819
		c0.02-1.042-0.777-1.866-1.816-1.887C152.012,144.42,151.121,145.217,151.098,146.257z"/>
	<path style="fill:#BF316C;" d="M24.168,215.781c-0.021,0.976,0.777,1.866,1.819,1.886c1.047,0.018,1.866-0.779,1.881-1.819
		c0.02-1.04-0.777-1.866-1.816-1.887C25.096,213.945,24.186,214.745,24.168,215.781z"/>
	<path style="fill:#BF316C;" d="M8.909,231.041c-0.02,1.04,0.777,1.866,1.818,1.886c1.039,0.018,1.874-0.78,1.888-1.819
		c0.015-0.976-0.772-1.866-1.823-1.883C9.752,229.204,8.926,230.004,8.909,231.041z"/>
	<path style="fill:#BF316C;" d="M107.149,359.789c-0.078,0.969,0.776,1.797,1.735,1.816c1.043,0.018,1.869-0.779,1.886-1.748
		s-0.779-1.797-1.737-1.814C107.985,358.021,107.167,358.824,107.149,359.789z"/>
	<path style="fill:#BF316C;" d="M255.859,72.07c-0.02,0.985,0.777,1.814,1.819,1.835c1.04,0.094,1.866-0.783,1.884-1.753
		c0.017-1.041-0.78-1.865-1.819-1.885C256.706,70.25,255.877,71.05,255.859,72.07z"/>
	<polygon style="fill:#CC6E83;" points="253.139,100.783 266.319,101.78 255.842,109.828 267.09,102.895 263.358,115.527 
		268.331,103.322 272.792,115.699 269.589,102.939 280.507,110.339 270.398,101.853 283.602,101.472 270.492,100.473 
		280.898,92.427 269.658,99.36 273.382,86.727 268.41,98.932 263.981,86.561 267.151,99.316 256.234,91.914 266.343,100.399 	"/>
	<polygon style="fill:#409941;" points="79.68,160.851 92.86,161.849 82.464,169.896 93.628,162.961 89.896,175.596 94.869,163.391 
		99.333,175.836 96.2,163.008 107.055,170.416 97.01,161.922 110.22,161.54 97.033,160.615 107.517,152.494 96.265,159.499 
		99.99,146.796 95.026,159 90.559,146.626 93.689,159.383 82.855,151.983 92.88,160.466 	"/>
</g>
</svg>
